<?xml version="1.0" encoding="UTF-8"?> <!-- Generator: Adobe Illustrator 22.1.0, SVG Export Plug-In . SVG Version: 6.00 Build 0) --> <svg xmlns="http://www.w3.org/2000/svg" xmlns:xlink="http://www.w3.org/1999/xlink" id="Artwork" x="0px" y="0px" viewBox="0 0 512 512" style="enable-background:new 0 0 512 512;" xml:space="preserve"> <style type="text/css"> .st0{fill:#FF5252;} .st1{fill:none;stroke:#FF5252;stroke-width:25;stroke-miterlimit:10;} .st2{fill:none;stroke:#FF5252;stroke-width:25;stroke-linecap:round;stroke-linejoin:round;stroke-miterlimit:10;} </style> <g> <path class="st0" d="M465.5,290V106.4c0-4.9-3-9.4-7.5-11.3L259.5,12.3c-3-1.3-6.4-1.3-9.4,0L51.6,95.1c-4.6,1.9-7.5,6.4-7.5,11.3 V290c0,116.2,94.5,210.7,210.7,210.7S465.5,406.1,465.5,290z M254.8,476.2c-102.7,0-186.2-83.5-186.2-186.2V114.6l186.2-77.7 L441,114.6V290C441,392.6,357.5,476.2,254.8,476.2z"></path> </g> <g> <path class="st1" d="M250.2,317.8l-32.5,32.5c-9.5,9.5-24.9,9.5-34.4,0l-12.9-12.9c-9.5-9.5-9.5-24.9,0-34.4l32.5-32.5 c9.5-9.5,24.9-9.5,34.4,0l12.9,12.9C259.7,292.9,259.7,308.3,250.2,317.8z"></path> <path class="st1" d="M339.3,228.7l-32.1,32.1c-9.5,9.5-24.9,9.5-34.4,0l-12.9-12.9c-9.5-9.5-9.5-24.9,0-34.4l32.1-32.1 c9.5-9.5,24.9-9.5,34.4,0l12.9,12.9C348.8,203.8,348.8,219.3,339.3,228.7z"></path> <polygon class="st2" points="291.2,229.5 218.9,301.7 218.9,301.7 291.2,229.5 "></polygon> </g> </svg> 